HIERARCHY
ROOT Hips
{
  OFFSET 0.0 0.0 0.0
  CHANNELS 6 Xposition Yposition Zposition Zrotation Xrotation Yrotation
  JOINT LeftHipJoint
  {
    OFFSET 0.1 0.0 0.0
    CHANNELS 3 Zrotation Xrotation Yrotation
    JOINT LeftUpLeg
    {
      OFFSET 117.05941048100834 0.0 0.0
      CHANNELS 3 Zrotation Xrotation Yrotation
      JOINT LeftLeg
      {
        OFFSET 0.0 0.0 -421.52566652508733
        CHANNELS 3 Zrotation Xrotation Yrotation
        JOINT LeftFoot
        {
          OFFSET 0.0 0.0 -423.82983868275653
          CHANNELS 3 Zrotation Xrotation Yrotation
          End Site
          {
            OFFSET 0.0 -0.1 0.0
          }
        }
      }
    }
  }
  JOINT LowerBack
  {
    OFFSET 0.0 0.0 0.1
    CHANNELS 3 Zrotation Xrotation Yrotation
    JOINT Spine
    {
      OFFSET 0.0 0.0 222.29863299394984
      CHANNELS 3 Zrotation Xrotation Yrotation
      JOINT Spine1
      {
        OFFSET 0.0 0.0 252.16708715328528
        CHANNELS 3 Zrotation Xrotation Yrotation
        JOINT LeftShoulder
        {
          OFFSET 0.1 0.0 0.0
          CHANNELS 3 Zrotation Xrotation Yrotation
          JOINT LeftArm
          {
            OFFSET 143.16094457568556 0.0 0.0
            CHANNELS 3 Zrotation Xrotation Yrotation
            JOINT LeftForeArm
            {
              OFFSET 263.51762200910946 0.0 0.0
              CHANNELS 3 Zrotation Xrotation Yrotation
              JOINT LeftHand
              {
                OFFSET 238.81480451405196 0.0 0.0
                CHANNELS 3 Zrotation Xrotation Yrotation
                End Site
                {
                  OFFSET 0.1 0.0 0.0
                }
              }
            }
          }
        }
        JOINT Neck
        {
          OFFSET 0.0 0.0 0.1
          CHANNELS 3 Zrotation Xrotation Yrotation
          JOINT Neck1
          {
            OFFSET 0.0 0.0 106.35494526349558
            CHANNELS 3 Zrotation Xrotation Yrotation
            End Site
            {
              OFFSET 0.0 0.0 112.916620037171
            }
          }
        }
        JOINT RightShoulder
        {
          OFFSET -0.1 0.0 0.0
          CHANNELS 3 Zrotation Xrotation Yrotation
          JOINT RightArm
          {
            OFFSET -143.16094457568556 0.0 0.0
            CHANNELS 3 Zrotation Xrotation Yrotation
            JOINT RightForeArm
            {
              OFFSET -263.51762200910946 0.0 0.0
              CHANNELS 3 Zrotation Xrotation Yrotation
              JOINT RightHand
              {
                OFFSET -238.81480451405196 0.0 0.0
                CHANNELS 3 Zrotation Xrotation Yrotation
                End Site
                {
                  OFFSET -0.1 0.0 0.0
                }
              }
            }
          }
        }
      }
    }
  }
  JOINT RightHipJoint
  {
    OFFSET -0.1 0.0 0.0
    CHANNELS 3 Zrotation Xrotation Yrotation
    JOINT RightUpLeg
    {
      OFFSET -117.05941048100834 0.0 0.0
      CHANNELS 3 Zrotation Xrotation Yrotation
      JOINT RightLeg
      {
        OFFSET 0.0 0.0 -421.52566652508733
        CHANNELS 3 Zrotation Xrotation Yrotation
        JOINT RightFoot
        {
          OFFSET 0.0 0.0 -423.82983868275653
          CHANNELS 3 Zrotation Xrotation Yrotation
          End Site
          {
            OFFSET 0.0 -0.1 0.0
          }
        }
      }
    }
  }
}
MOTION
Frames: 6
Frame Time: 0.03333333333333333
1665.0 3500.0 860.1061683281317 33.95728366673801 -7.771177270478167 2.279836282100153 -6.3611093629270335e-15 1.5871713303006417e-15 8.810570774623559e-32 -0.004523979700124678 0.22922100895065448 -8.621593752150343 -2.37425315568546 12.664249670928761 1.4564659155920707 -6.3611093629270335e-15 0.0 0.0 -6.3611093629270335e-15 1.5871713303006417e-15 8.810570774623559e-32 -0.18447848654948443 5.77636818496379 -1.2138353631591772 -6.199307632197494 1.116527878334961e-16 6.046222248899491e-18 0.0 3.851452934584727e-16 0.0 -48.11389930492385 8.992700271749312 68.95319611080242 -58.6424761586338 7.103709385056814e-15 3.4198447560262635e-16 0.0 0.0 3.1805546814635168e-15 0.0 3.851452934584727e-16 0.0 -2.729161638545545 5.004385447516926 -1.7774580182016229 0.0 3.851452934584727e-16 0.0 50.64868200891664 16.460229906708868 -74.58524384299395 81.62541961880832 4.1575479944540154e-15 4.8144061940107794e-15 3.1805546814635168e-15 0.0 0.0 -6.3611093629270335e-15 1.5871713303006417e-15 8.810570774623559e-32 -0.2249478489201815 6.950502390639987 -1.8512533401256945 -0.8259681743618702 12.611114388850718 2.204454918051896 0.0 0.0 0.0
1665.0 3500.0 860.1061683281317 33.73184733414399 -7.836584593676214 1.925787879778782 0.0 0.0 0.0 -0.004930688145431243 0.22430813081781448 -8.306855280123012 -2.3739607603922477 12.822437589138591 1.532470467130835 -6.361109362927032e-15 2.2069531490250793e-32 -3.975693351829395e-16 0.0 0.0 0.0 -0.2009374586743988 5.7171598265560055 -0.7060711238306147 -6.27876876905537 4.217834804816349e-16 2.3133766585093234e-17 3.4483642953516864e-34 3.975693351829396e-16 -9.93923337957349e-17 -48.458294942286244 9.016595546870207 68.49975131431236 -58.37550307531757 2.326606147033866e-15 -4.1650620668350296e-15 0.0 0.0 1.5902773407317584e-15 3.4483642953516864e-34 3.975693351829396e-16 -9.93923337957349e-17 -3.3411683278035347 4.9698811088421415 -2.3490876721118883 3.4483642953516864e-34 3.975693351829396e-16 -9.93923337957349e-17 51.467548224086464 15.591774678863198 -73.87564395135013 81.02549159489561 -1.3100678344159795e-14 -5.539926764719227e-15 0.0 0.0 0.0 0.0 0.0 0.0 -0.2484402262294058 6.9779423433827095 -1.5241815893256168 -0.7879380671895686 12.518084166672393 2.2440142695601697 0.0 0.0 0.0
1665.0 3500.0 860.1061683281317 33.28394678147835 -7.753286630937091 1.633842382006167 0.0 1.5902773407317584e-15 0.0 -0.003984152648418316 0.18377444658722641 -8.094327298580604 -2.36341717119792 12.848753008971647 1.5842784470354574 0.0 0.0 0.0 0.0 1.5902773407317584e-15 0.0 -0.2098126245805226 5.564201229002035 -0.5303714200535411 -6.309262817675939 5.527650255287994e-16 1.3000849368936587e-16 0.0 0.0 0.0 -49.00625688609912 9.19328547964524 68.4388969644044 -58.25272896081368 7.740474463057988e-16 -1.389184138734799e-15 0.0 0.0 -1.5902773407317584e-15 0.0 0.0 0.0 -3.3331587642539118 4.99325077659828 -2.379121561291297 0.0 0.0 0.0 51.823897881188984 15.49150322033499 -73.97983441487801 81.00169379851322 -4.836964442714096e-15 4.1312815574634336e-15 0.0 0.0 0.0 0.0 1.5902773407317584e-15 0.0 -0.26110476860860393 6.839421610394286 -1.238256595190027 -0.7617763632434328 12.595237738607441 2.243140654938447 0.0 -1.3914926731402886e-15 0.0
1665.0 3500.0 860.1061683281317 33.33076606712527 -7.782625777075216 1.490870894148891 0.0 0.0 0.0 -0.0017006858890799771 0.11684963830038263 -7.995428463028373 -2.383380935667573 12.9224756744516 1.6257204371687088 0.0 0.0 0.0 0.0 0.0 0.0 -0.22458781120348004 5.631044389465464 -0.4149092669313563 -6.270826683490261 -6.746357892189572e-17 9.584582336071965e-17 -1.077613842297402e-35 -1.2424041724466861e-17 -9.939233379573489e-17 -49.09918453930348 9.033284764231299 68.21172179721185 -59.106559805482924 1.337728041520658e-14 -1.0696274260906734e-14 0.0 0.0 -1.5902773407317584e-15 -1.077613842297402e-35 -1.2424041724466861e-17 -9.939233379573489e-17 -3.778247134173005 4.976171811397075 -2.6395121622158904 -1.077613842297402e-35 -1.2424041724466861e-17 -9.939233379573489e-17 52.01622203053592 15.018186601996819 -73.73066681197541 80.98545186288348 -8.968145888276387e-15 -7.069540160627618e-16 -3.1805546814635168e-15 0.0 0.0 0.0 0.0 0.0 -0.2739530154069612 6.788188922135797 -1.1006986296815249 -0.7665491381537564 12.718427790024977 2.176032441485544 -6.3611093629270335e-15 4.4139062980501586e-32 -7.951386703658792e-16
1665.0 3500.0 860.1061683281317 33.158471078569534 -8.034345288578239 1.395310982659834 0.0 0.0 0.0 -0.015059111969967951 0.4418808455636221 -7.919914976026031 -2.317561508697186 12.62897685529344 1.691174145477703 -3.4483642953516864e-34 1.987846675914698e-16 1.987846675914698e-16 0.0 0.0 0.0 -0.23358384028279364 5.771871113507078 -0.423540548589618 -5.93093120163719 -7.265438309271215e-18 -9.990198314502197e-17 0.0 0.0 0.0 -48.843157039183055 8.866923425801454 68.06253227787712 -59.98502426749595 8.799958277128795e-15 -2.7971675339029112e-14 0.0 0.0 3.1805546814635168e-15 0.0 0.0 0.0 -4.224084730699786 4.773468332100263 -2.64032165353735 0.0 0.0 0.0 51.81421452563176 14.569442790303755 -73.27573798138407 81.39402542281361 8.970609506888981e-15 6.749738729380391e-16 0.0 0.0 0.0 0.0 0.0 0.0 -0.2898404721594858 7.084481298489588 -1.0759538153380332 -0.7726681448601104 12.780050057781217 2.2450010563987295 -2.069018577211012e-33 1.9878466759146977e-16 1.1927080055488186e-15
1665.0 3500.0 860.1061683281317 32.955133975765314 -8.240036188665789 1.1821361682334137 0.0 0.0 3.975693351829396e-16 -0.024632160642984766 0.6258346960073373 -7.694230396647123 -2.2930723209747064 12.538827676934458 1.616585761481752 0.0 0.0 0.0 0.0 0.0 3.975693351829396e-16 -0.2612353841573493 5.954346479672887 -0.24091719204202502 -5.971532032879324 -1.6647042455724067e-16 9.084456573424437e-17 0.0 0.0 -9.93923337957349e-17 -48.72266126990021 8.558244147956064 67.70552269127384 -60.425464560900586 -3.200986523651264e-15 5.497035346668325e-15 0.0 0.0 -1.5902773407317584e-15 0.0 0.0 -9.93923337957349e-17 -3.930744029308894 4.599645294060494 -2.863859726076285 0.0 0.0 -9.93923337957349e-17 51.83632567423375 14.121906479692157 -73.23364037471167 81.54503843857889 8.9714912226852e-15 6.631514876092546e-16 0.0 0.0 -7.951386703658792e-16 0.0 0.0 3.975693351829396e-16 -0.31300658062188175 7.064360688949097 -0.8319243404008967 -0.7805483116217155 13.089140605766454 2.1623194673345787 0.0 0.0 -3.975693351829396e-16
